<svg width="22" height="22" viewBox="0 0 22 22" fill="none" xmlns="http://www.w3.org/2000/svg">
<path fill-rule="evenodd" clip-rule="evenodd" d="M21.786 0.218962C21.4937 -0.0729872 21.0202 -0.0729872 20.7279 0.218962L19.3952 1.55166C19.27 1.51676 19.1408 1.4983 19.0108 1.49675H11.4389C11.0419 1.4971 10.6613 1.65509 10.3807 1.93599L0.437923 11.8738C-0.145974 12.4584 -0.145974 13.4055 0.437923 13.9902L8.00984 21.5621C8.59446 22.146 9.54155 22.146 10.1262 21.5621L20.064 11.6243C20.3431 11.3429 20.4992 10.9624 20.4983 10.5661V2.99417C20.4967 2.86421 20.4783 2.73502 20.4433 2.60983L21.776 1.27713C22.0708 0.987583 22.0752 0.514021 21.786 0.218962ZM19.0058 10.5661L9.06799 20.504L1.49607 12.932L11.4389 2.99422H17.9526L15.6666 5.28026C15.3146 5.09274 14.9224 4.9934 14.5236 4.99076C13.1452 4.99076 12.0279 6.10812 12.0279 7.48645C12.0279 8.86478 13.1452 9.98214 14.5236 9.98214C15.9019 9.98214 17.0192 8.86478 17.0192 7.48645C17.0151 7.08722 16.914 6.69497 16.7248 6.34343L19.0108 4.05738L19.0058 10.5661ZM15.5118 7.48634C15.5118 8.03767 15.0648 8.48462 14.5135 8.48462C13.9622 8.48462 13.5152 8.03767 13.5152 7.48634C13.5152 6.93501 13.9622 6.48807 14.5135 6.48807C14.7791 6.48674 15.0343 6.59133 15.2226 6.77868C15.4109 6.96604 15.5168 7.22072 15.5168 7.48634H15.5118Z" fill="#0052B9"/>
</svg>
