<svg width="18" height="22" viewBox="0 0 18 22" fill="none" xmlns="http://www.w3.org/2000/svg">
<path fill-rule="evenodd" clip-rule="evenodd" d="M9 0C4.08156 0.123644 0.123644 4.08156 0 9C0.0834458 10.4542 0.484517 11.8725 1.175 13.155L1.245 13.28C6.685 22 8.31 22 9 22C10.08 22 11.245 21.24 14 17.365C15.445 15.365 16.685 13.365 16.735 13.275L16.805 13.155C17.5025 11.8741 17.9104 10.4557 18 9C17.8764 4.08156 13.9184 0.123644 9 0ZM15.5 12.5C15.5 12.5 10.5 20.5 9 20.5C7.5 20.5 2.5 12.5 2.5 12.5C1.91872 11.4189 1.57762 10.225 1.5 9C1.5 4.85786 4.85786 1.5 9 1.5C13.1421 1.5 16.5 4.85786 16.5 9C16.4177 10.2262 16.0715 11.4201 15.485 12.5H15.5Z" fill="#0052B9"/>
<path fill-rule="evenodd" clip-rule="evenodd" d="M9 4.5C6.79086 4.5 5 6.29086 5 8.5C5 10.7091 6.79086 12.5 9 12.5C11.2091 12.5 13 10.7091 13 8.5C13 6.29086 11.2091 4.5 9 4.5ZM9 11C7.61929 11 6.5 9.88071 6.5 8.5C6.5 7.11929 7.61929 6 9 6C10.3807 6 11.5 7.11929 11.5 8.5C11.5 9.88071 10.3807 11 9 11Z" fill="#0052B9"/>
</svg>
