<svg width="160" height="32" viewBox="0 0 160 32" fill="none" xmlns="http://www.w3.org/2000/svg">
<path d="M47.3424 25.5215V6.22825H50.8453V25.5215H47.3424Z" fill="white"/>
<path d="M68.9139 31.3506L66.2594 27.054C65.7303 26.2148 64.8637 25.7952 63.6596 25.7952C61.7987 25.7952 60.1749 25.3847 58.7884 24.5637C57.4018 23.7427 56.3254 22.5933 55.5592 21.1155C54.7929 19.6195 54.4098 17.8681 54.4098 15.8612C54.4098 13.8361 54.7929 12.0847 55.5592 10.6069C56.3254 9.12909 57.4018 7.98882 58.7884 7.18608C60.1749 6.36508 61.8078 5.95459 63.687 5.95459C65.5661 5.95459 67.199 6.36508 68.5855 7.18608C69.9721 7.98882 71.0485 9.12909 71.8148 10.6069C72.581 12.0847 72.9641 13.827 72.9641 15.8338C72.9641 18.0231 72.508 19.9023 71.5958 21.4713C70.7019 23.0403 69.4613 24.1897 67.874 24.9195C68.6585 25.1749 69.3335 25.7861 69.8991 26.753L71.8969 29.9275L68.9139 31.3506ZM63.687 22.7849C65.4566 22.7849 66.8341 22.1737 67.8193 20.9513C68.8045 19.729 69.2971 18.0323 69.2971 15.8612C69.2971 13.6719 68.8045 11.9752 67.8193 10.7711C66.8523 9.56695 65.4749 8.96489 63.687 8.96489C61.9173 8.96489 60.5398 9.56695 59.5546 10.7711C58.5694 11.9752 58.0769 13.6719 58.0769 15.8612C58.0769 18.0323 58.5694 19.729 59.5546 20.9513C60.5398 22.1737 61.9173 22.7849 63.687 22.7849Z" fill="white"/>
<path d="M85.5022 25.7952C83.4953 25.7952 81.7713 25.3938 80.33 24.5911C78.9069 23.7701 77.8123 22.6207 77.046 21.1429C76.2797 19.6469 75.8966 17.8863 75.8966 15.8612C75.8966 13.8361 76.2797 12.0847 77.046 10.6069C77.8123 9.12909 78.9069 7.98882 80.33 7.18608C81.7713 6.36508 83.4953 5.95459 85.5022 5.95459C86.7975 5.95459 88.0199 6.15528 89.1693 6.55665C90.3369 6.95802 91.2948 7.53272 92.0428 8.28073L90.8934 11.0721C90.0724 10.3788 89.2332 9.8771 88.3757 9.56695C87.5182 9.23855 86.5969 9.07435 85.6117 9.07435C83.6595 9.07435 82.1726 9.66729 81.151 10.8532C80.1293 12.0208 79.6184 13.6901 79.6184 15.8612C79.6184 18.0323 80.1293 19.7107 81.151 20.8966C82.1726 22.0825 83.6595 22.6754 85.6117 22.6754C86.5969 22.6754 87.5182 22.5203 88.3757 22.2102C89.2332 21.8818 90.0724 21.371 90.8934 20.6777L92.0428 23.469C91.2948 24.1988 90.3369 24.7735 89.1693 25.1931C88.0199 25.5945 86.7975 25.7952 85.5022 25.7952Z" fill="white"/>
<path d="M98.6964 25.7952C97.7295 25.7952 96.8629 25.6127 96.0966 25.2479C95.3486 24.8647 94.7557 24.3539 94.3178 23.7153C93.8982 23.0768 93.6884 22.3561 93.6884 21.5534C93.6884 20.5682 93.9438 19.7928 94.4546 19.2273C94.9655 18.6434 95.7956 18.2238 96.945 17.9684C98.0944 17.713 99.636 17.5853 101.57 17.5853H102.528V17.0106C102.528 16.0984 102.327 15.4416 101.926 15.0402C101.524 14.6388 100.849 14.4382 99.9005 14.4382C99.1525 14.4382 98.3863 14.5567 97.6018 14.7939C96.8173 15.0128 96.0236 15.3595 95.2209 15.8338L94.2357 13.5077C94.7101 13.1793 95.2665 12.8965 95.905 12.6593C96.5618 12.4039 97.246 12.2124 97.9575 12.0846C98.6873 11.9387 99.3715 11.8657 100.01 11.8657C101.962 11.8657 103.413 12.3218 104.361 13.234C105.31 14.128 105.784 15.5237 105.784 17.4211V25.5215H102.582V23.3869C102.272 24.135 101.78 24.7279 101.105 25.1658C100.43 25.5854 99.6269 25.7952 98.6964 25.7952ZM99.4079 23.4417C100.302 23.4417 101.041 23.1315 101.625 22.5112C102.227 21.8909 102.528 21.1064 102.528 20.1577V19.5557H101.597C99.8823 19.5557 98.6873 19.6925 98.0123 19.9662C97.3555 20.2216 97.0271 20.6959 97.0271 21.3892C97.0271 21.9913 97.2369 22.4839 97.6565 22.867C98.0761 23.2501 98.6599 23.4417 99.4079 23.4417Z" fill="white"/>
<path d="M109.256 25.5215V12.1394H112.595V14.4929C113.252 12.9056 114.657 12.0299 116.81 11.8657L117.849 11.7836L118.068 14.6845L116.098 14.876C113.854 15.0949 112.732 16.2443 112.732 18.3242V25.5215H109.256Z" fill="white"/>
<path d="M119.973 30.4475V12.1394H123.312V14.274C123.695 13.5442 124.27 12.9604 125.036 12.5225C125.82 12.0847 126.705 11.8657 127.69 11.8657C128.858 11.8657 129.88 12.1485 130.755 12.7141C131.649 13.2796 132.343 14.0824 132.835 15.1223C133.328 16.144 133.574 17.3755 133.574 18.8168C133.574 20.2398 133.328 21.4804 132.835 22.5386C132.343 23.5785 131.659 24.3813 130.783 24.9468C129.907 25.5124 128.876 25.7952 127.69 25.7952C126.742 25.7952 125.884 25.5945 125.118 25.1931C124.37 24.7735 123.795 24.2171 123.394 23.5238V30.4475H119.973ZM126.733 23.1954C127.754 23.1954 128.575 22.8305 129.196 22.1007C129.816 21.3527 130.126 20.2581 130.126 18.8168C130.126 17.3572 129.816 16.2717 129.196 15.5602C128.575 14.8304 127.754 14.4655 126.733 14.4655C125.711 14.4655 124.89 14.8304 124.27 15.5602C123.649 16.2717 123.339 17.3572 123.339 18.8168C123.339 20.2581 123.649 21.3527 124.27 22.1007C124.89 22.8305 125.711 23.1954 126.733 23.1954Z" fill="white"/>
<path d="M142.978 25.7952C141.463 25.7952 140.159 25.5124 139.064 24.9468C137.969 24.3813 137.121 23.5785 136.519 22.5386C135.935 21.4987 135.643 20.2672 135.643 18.8441C135.643 17.4576 135.926 16.2443 136.492 15.2044C137.075 14.1645 137.869 13.3526 138.873 12.7688C139.894 12.1667 141.053 11.8657 142.348 11.8657C144.245 11.8657 145.742 12.4678 146.836 13.6719C147.949 14.876 148.506 16.518 148.506 18.5978V19.6104H138.927C139.183 22.0004 140.551 23.1954 143.032 23.1954C143.78 23.1954 144.528 23.0859 145.276 22.867C146.024 22.6298 146.708 22.2649 147.329 21.7723L148.287 24.0711C147.648 24.6002 146.845 25.0198 145.878 25.33C144.911 25.6401 143.944 25.7952 142.978 25.7952ZM142.485 14.1919C141.481 14.1919 140.67 14.502 140.049 15.1223C139.429 15.7426 139.055 16.5819 138.927 17.64H145.659C145.586 16.5271 145.276 15.6788 144.729 15.0949C144.2 14.4929 143.452 14.1919 142.485 14.1919Z" fill="white"/>
<path d="M157.291 25.7952C153.752 25.7952 151.982 24.0437 151.982 20.5409V14.7118H149.41V12.1394H151.982V8.1439H155.403V12.1394H159.453V14.7118H155.403V20.3493C155.403 21.225 155.594 21.8818 155.978 22.3197C156.361 22.7575 156.981 22.9765 157.838 22.9765C158.094 22.9765 158.358 22.9491 158.632 22.8944C158.906 22.8214 159.189 22.7484 159.48 22.6754L160 25.1931C159.672 25.3756 159.252 25.5215 158.742 25.631C158.249 25.7405 157.766 25.7952 157.291 25.7952Z" fill="white"/>
<path fill-rule="evenodd" clip-rule="evenodd" d="M2.48866 7.02492V24.9416H33.8429V7.02492H2.48866ZM1.49329 5.53186C1.21843 5.53186 0.995605 5.75468 0.995605 6.02955V25.937C0.995605 26.2119 1.21843 26.4347 1.49329 26.4347H34.8383C35.1131 26.4347 35.336 26.2119 35.336 25.937V6.02955C35.336 5.75468 35.1131 5.53186 34.8383 5.53186H1.49329Z" fill="white"/>
<path fill-rule="evenodd" clip-rule="evenodd" d="M32.848 8.02064L3.4845 8.02064V23.9466H32.848V8.02064ZM3.4845 7.52295C3.20964 7.52295 2.98682 7.74577 2.98682 8.02064V23.9466C2.98682 24.2215 3.20964 24.4443 3.4845 24.4443H32.848C33.1229 24.4443 33.3457 24.2215 33.3457 23.9466V8.02064C33.3457 7.74577 33.1229 7.52295 32.848 7.52295H3.4845Z" fill="white"/>
<g filter="url(#filter0_d_2642_38085)">
<path fill-rule="evenodd" clip-rule="evenodd" d="M14.9127 1.2326C16.0262 1.07885 17.2164 1.00012 18.4162 1.00012C19.616 1.00012 20.8061 1.07885 21.9197 1.2326C23.0322 1.3862 24.0539 1.61271 24.9248 1.90298C25.7899 2.19137 26.5173 2.54629 27.0377 2.96512C27.5544 3.38088 27.925 3.91071 27.925 4.53672C27.925 4.84075 27.6786 5.08721 27.3745 5.08721C27.0705 5.08721 26.8241 4.84075 26.8241 4.53672C26.8241 4.37846 26.7313 4.13168 26.3475 3.82285L26.6926 3.39399L26.3475 3.82285C25.9676 3.5171 25.3752 3.21364 24.5766 2.94745C23.7837 2.68316 22.8304 2.46975 21.7691 2.32322C20.7089 2.17684 19.5692 2.10109 18.4162 2.10109C17.2632 2.10109 16.1235 2.17684 15.0633 2.32322C14.002 2.46975 13.0486 2.68316 12.2558 2.94745C11.4572 3.21364 10.8648 3.5171 10.4849 3.82285C10.1011 4.13168 10.0083 4.37846 10.0083 4.53672C10.0083 4.84075 9.76186 5.08721 9.45783 5.08721C9.15381 5.08721 8.90735 4.84075 8.90735 4.53672C8.90735 3.91071 9.27799 3.38088 9.79462 2.96512C10.3151 2.54629 11.0424 2.19137 11.9076 1.90298C12.7784 1.61271 13.8002 1.3862 14.9127 1.2326Z" fill="white"/>
</g>
<path fill-rule="evenodd" clip-rule="evenodd" d="M36.3312 9.016H35.3358V8.51831H36.3312V9.016Z" fill="white"/>
<path fill-rule="evenodd" clip-rule="evenodd" d="M36.3312 7.52283H35.3358V7.02515H36.3312V7.52283Z" fill="white"/>
<path fill-rule="evenodd" clip-rule="evenodd" d="M36.3312 10.5087H35.3358V10.011H36.3312V10.5087Z" fill="white"/>
<path fill-rule="evenodd" clip-rule="evenodd" d="M36.3312 12.0016H35.3358V11.5039H36.3312V12.0016Z" fill="white"/>
<path fill-rule="evenodd" clip-rule="evenodd" d="M36.3312 13.495H35.3358V12.9973H36.3312V13.495Z" fill="white"/>
<path fill-rule="evenodd" clip-rule="evenodd" d="M36.3312 14.9877H35.3358V14.49H36.3312V14.9877Z" fill="white"/>
<path fill-rule="evenodd" clip-rule="evenodd" d="M36.3312 16.481H35.3358V15.9833H36.3312V16.481Z" fill="white"/>
<path fill-rule="evenodd" clip-rule="evenodd" d="M36.3312 17.9741H35.3358V17.4764H36.3312V17.9741Z" fill="white"/>
<path fill-rule="evenodd" clip-rule="evenodd" d="M36.3312 19.467H35.3358V18.9694H36.3312V19.467Z" fill="white"/>
<path fill-rule="evenodd" clip-rule="evenodd" d="M36.3312 20.96H35.3358V20.4623H36.3312V20.96Z" fill="white"/>
<path fill-rule="evenodd" clip-rule="evenodd" d="M36.3312 22.4531H35.3358V21.9554H36.3312V22.4531Z" fill="white"/>
<path fill-rule="evenodd" clip-rule="evenodd" d="M36.3312 23.9464H35.3358V23.4487H36.3312V23.9464Z" fill="white"/>
<path fill-rule="evenodd" clip-rule="evenodd" d="M36.3312 25.4393H35.3358V24.9417H36.3312V25.4393Z" fill="white"/>
<path fill-rule="evenodd" clip-rule="evenodd" d="M0.995373 9.016H0V8.51831H0.995373V9.016Z" fill="white"/>
<path fill-rule="evenodd" clip-rule="evenodd" d="M0.995373 7.52283H0V7.02515H0.995373V7.52283Z" fill="white"/>
<path fill-rule="evenodd" clip-rule="evenodd" d="M0.995373 10.5087H0V10.011H0.995373V10.5087Z" fill="white"/>
<path fill-rule="evenodd" clip-rule="evenodd" d="M0.995373 12.0016H0V11.5039H0.995373V12.0016Z" fill="white"/>
<path fill-rule="evenodd" clip-rule="evenodd" d="M0.995373 13.495H0V12.9973H0.995373V13.495Z" fill="white"/>
<path fill-rule="evenodd" clip-rule="evenodd" d="M0.995373 14.9877H0V14.49H0.995373V14.9877Z" fill="white"/>
<path fill-rule="evenodd" clip-rule="evenodd" d="M0.995373 16.481H0V15.9833H0.995373V16.481Z" fill="white"/>
<path fill-rule="evenodd" clip-rule="evenodd" d="M0.995373 17.9741H0V17.4764H0.995373V17.9741Z" fill="white"/>
<path fill-rule="evenodd" clip-rule="evenodd" d="M0.995373 19.467H0V18.9694H0.995373V19.467Z" fill="white"/>
<path fill-rule="evenodd" clip-rule="evenodd" d="M0.995373 20.96H0V20.4623H0.995373V20.96Z" fill="white"/>
<path fill-rule="evenodd" clip-rule="evenodd" d="M0.995373 22.4531H0V21.9554H0.995373V22.4531Z" fill="white"/>
<path fill-rule="evenodd" clip-rule="evenodd" d="M0.995373 23.9464H0V23.4487H0.995373V23.9464Z" fill="white"/>
<path fill-rule="evenodd" clip-rule="evenodd" d="M0.995373 25.4393H0V24.9417H0.995373V25.4393Z" fill="white"/>
<path d="M4.47937 9.51356C4.47937 9.23869 4.70219 9.01587 4.97706 9.01587H6.47012C6.74498 9.01587 6.9678 9.23869 6.9678 9.51356V11.0066C6.9678 11.2815 6.74498 11.5043 6.47012 11.5043H4.97706C4.70219 11.5043 4.47937 11.2815 4.47937 11.0066V9.51356Z" fill="white"/>
<path d="M4.47937 20.9605C4.47937 20.6856 4.70219 20.4628 4.97706 20.4628H6.47012C6.74498 20.4628 6.9678 20.6856 6.9678 20.9605V22.4535C6.9678 22.7284 6.74498 22.9512 6.47012 22.9512H4.97706C4.70219 22.9512 4.47937 22.7284 4.47937 22.4535V20.9605Z" fill="white"/>
<path d="M29.3621 20.9605C29.3621 20.6856 29.5849 20.4628 29.8597 20.4628H31.3528C31.6277 20.4628 31.8505 20.6856 31.8505 20.9605V22.4535C31.8505 22.7284 31.6277 22.9512 31.3528 22.9512H29.8597C29.5849 22.9512 29.3621 22.7284 29.3621 22.4535V20.9605Z" fill="white"/>
<path d="M29.3621 9.51356C29.3621 9.23869 29.5849 9.01587 29.8597 9.01587H31.3528C31.6277 9.01587 31.8505 9.23869 31.8505 9.51356V11.0066C31.8505 11.2815 31.6277 11.5043 31.3528 11.5043H29.8597C29.5849 11.5043 29.3621 11.2815 29.3621 11.0066V9.51356Z" fill="white"/>
<path fill-rule="evenodd" clip-rule="evenodd" d="M18.4141 8.89514L25.5024 15.9835L18.4141 23.0718L11.3257 15.9835L18.4141 8.89514ZM18.4141 11.0066L13.4372 15.9835L18.4141 20.9603L23.3909 15.9835L18.4141 11.0066Z" fill="white"/>
<path d="M18.0621 13.847C18.2565 13.6527 18.5716 13.6527 18.766 13.847L20.5505 15.6316C20.7449 15.8259 20.7449 16.1411 20.5505 16.3354L18.766 18.12C18.5716 18.3143 18.2565 18.3143 18.0621 18.12L16.2776 16.3354C16.0832 16.1411 16.0832 15.8259 16.2776 15.6316L18.0621 13.847Z" fill="white"/>
<path fill-rule="evenodd" clip-rule="evenodd" d="M20.1986 15.9835L18.4141 14.199L18.4141 14.199L16.6295 15.9835L18.4141 17.7681L20.1986 15.9835ZM18.766 13.847C18.5716 13.6527 18.2565 13.6527 18.0621 13.847L16.2776 15.6316C16.0832 15.8259 16.0832 16.1411 16.2776 16.3354L18.0621 18.12C18.2565 18.3143 18.5716 18.3143 18.766 18.12L20.5505 16.3354C20.7449 16.1411 20.7449 15.8259 20.5505 15.6316L18.766 13.847Z" fill="white"/>
<defs>
<filter id="filter0_d_2642_38085" x="7.91198" y="0.502436" width="21.0084" height="6.07778" filterUnits="userSpaceOnUse" color-interpolation-filters="sRGB">
<feFlood flood-opacity="0" result="BackgroundImageFix"/>
<feColorMatrix in="SourceAlpha" type="matrix" values="0 0 0 0 0 0 0 0 0 0 0 0 0 0 0 0 0 0 127 0" result="hardAlpha"/>
<feOffset dy="0.497686"/>
<feGaussianBlur stdDeviation="0.497686"/>
<feComposite in2="hardAlpha" operator="out"/>
<feColorMatrix type="matrix" values="0 0 0 0 0 0 0 0 0 0 0 0 0 0 0 0 0 0 0.19 0"/>
<feBlend mode="normal" in2="BackgroundImageFix" result="effect1_dropShadow_2642_38085"/>
<feBlend mode="normal" in="SourceGraphic" in2="effect1_dropShadow_2642_38085" result="shape"/>
</filter>
</defs>
</svg>
