<svg width="11" height="13" viewBox="0 0 11 13" fill="none" xmlns="http://www.w3.org/2000/svg">
<path d="M0.91111 12.5H9.98928C10.4864 12.5 10.8894 12.1077 10.8894 11.6238C10.8894 11.1399 10.4864 10.7476 9.98928 10.7476H0.900133C0.403003 10.7476 0 11.1399 0 11.6238C0 12.1077 0.403003 12.5 0.900133 12.5H0.91111Z" fill="white"/>
<path d="M0.910854 7.38157H9.98902C10.3364 7.41885 10.675 7.25945 10.8607 6.97126C11.0464 6.68308 11.0464 6.31689 10.8607 6.0287C10.675 5.74052 10.3364 5.58111 9.98902 5.6184H0.899877C0.438128 5.66796 0.088623 6.04777 0.088623 6.49998C0.088623 6.9522 0.438128 7.33201 0.899877 7.38157H0.910854Z" fill="white"/>
<path d="M0.910863 2.26317H4.36869C4.83044 2.21361 5.17994 1.8338 5.17994 1.38159C5.17994 0.929368 4.83044 0.549563 4.36869 0.5H0.910863C0.449114 0.549563 0.0996094 0.929368 0.0996094 1.38159C0.0996094 1.8338 0.449114 2.21361 0.910863 2.26317Z" fill="white"/>
</svg>
